<?xml version="1.0" encoding="UTF-8"?>
<svg id="Layer_2" data-name="Layer 2" xmlns="http://www.w3.org/2000/svg" viewBox="0 0 39.04 13.18">
  <defs>
    <style>
      .cls-1 {
        fill: #f2c178;
      }

      .cls-2 {
        fill: #935d07;
      }

      .cls-3 {
        fill: none;
      }
    </style>
  </defs>
  <g id="Layer_1-2" data-name="Layer 1">
    <g>
      <polygon class="cls-3" points="25.36 .07 25.38 0 25.36 .07 25.36 .07"/>
      <path class="cls-3" d="m11.27,3.24v6.93h.35c.21,0,.24-.07.24-.25V3h-.37c-.17,0-.23.08-.23.24Z"/>
      <polygon class="cls-3" points="25.02 10.11 25.03 10.04 25.02 10.11 25.02 10.11"/>
      <polygon class="cls-3" points="2.41 .07 2.39 0 2.41 .07 2.41 .07"/>
      <polygon class="cls-3" points="31.19 .07 31.17 0 31.19 .07 31.19 .07"/>
      <polygon class="cls-3" points="38.08 10.11 38.09 10.04 38.08 10.11 38.08 10.11"/>
      <polygon class="cls-3" points="37.78 .07 37.76 0 37.78 .07 37.78 .07"/>
      <path class="cls-2" d="m14.8,1.24s-.05-.05-.07-.07c-.02-.02-.05-.05-.07-.07-.02-.02-.05-.05-.07-.07-.02-.02-.05-.05-.07-.07-.02-.02-.05-.05-.07-.07-.02-.02-.05-.05-.07-.07-.02-.02-.05-.05-.07-.07-.02-.02-.05-.05-.07-.07-.02-.02-.05-.05-.07-.07-.02-.02-.05-.05-.07-.07-.02-.02-.05-.05-.07-.07.25.28.38.66.38,1.12v8.98c0,.94-.4,1.75-1.8,1.75h-2.91c-.66,0-1.09-.18-1.37-.47.02.03.05.05.07.07.02.03.05.05.07.07.02.02.05.05.07.07.02.03.05.05.07.07.02.03.05.05.07.07.02.02.05.05.07.07.02.03.05.05.07.07.02.03.05.05.07.07.02.02.05.05.07.07.02.03.05.05.07.07.02.03.05.05.07.07.27.33.72.54,1.44.54h2.91c1.4,0,1.8-.82,1.8-1.75V2.44c0-.51-.15-.92-.45-1.2Z"/>
      <polygon class="cls-2" points="32.44 3.14 32.01 .84 31.17 0 31.19 .07 31.19 .07 31.6 2.3 28.87 2.3 28.87 5.22 29.71 5.22 29.71 3.14 32.44 3.14"/>
      <polygon class="cls-2" points="2.32 7.18 2.32 12.33 2.18 12.33 0 12.33 .84 13.18 2.18 13.18 3.16 13.18 3.16 10.39 2.32 7.18"/>
      <polygon class="cls-2" points="22.12 2.3 21.08 2.3 19.51 2.3 20.35 3.14 21.05 3.14 21.89 3.14 22.12 2.3"/>
      <path class="cls-2" d="m10.67,10.17h.6V3.24c0-.15.05-.24.23-.24h.37v-.6c0-.15-.05-.24-.22-.24h-.99c-.17,0-.23.08-.23.24v7.52c0,.19.04.25.24.25Z"/>
      <polygon class="cls-2" points="2.41 .07 3.67 4.95 3.67 2.54 3.23 .84 2.39 0 2.41 .07 2.41 .07"/>
      <polygon class="cls-2" points="25.02 10.11 24.6 12.33 20.78 12.33 19.3 12.33 20.14 13.18 25.44 13.18 25.87 10.88 25.03 10.04 25.02 10.11 25.02 10.11"/>
      <polygon class="cls-2" points="37.78 .07 38.2 2.3 35.46 2.3 35.46 5.22 36.3 5.22 36.3 3.14 39.04 3.14 38.6 .84 37.76 0 37.78 .07 37.78 .07"/>
      <polygon class="cls-1" points="5.4 12.33 6.25 12.33 6.25 1.46 6.25 0 3.67 0 3.67 2.54 3.67 4.95 2.41 .07 2.39 0 0 0 0 12.33 2.18 12.33 2.32 12.33 2.32 7.18 3.16 10.39 3.67 12.33 5.4 12.33"/>
      <path class="cls-1" d="m9.7,12.33h2.91c1.4,0,1.8-.82,1.8-1.75V1.6c0-.46-.12-.85-.38-1.12-.28-.3-.71-.47-1.32-.47h-3.11c-1.18,0-1.7.63-1.7,1.6v8.98c0,.5.12.96.43,1.28.28.29.71.47,1.37.47Zm.73-2.42V2.4c0-.15.05-.24.23-.24h.99c.17,0,.22.08.22.24v7.52c0,.19-.03.25-.24.25h-.95c-.21,0-.24-.07-.24-.25Z"/>
      <polygon class="cls-1" points="17.62 12.33 18.32 12.33 18.32 1.87 18.32 0 15.81 0 15.81 12.33 17.62 12.33"/>
      <polygon class="cls-1" points="22.68 10.04 25.36 .07 25.38 0 19.94 0 19.51 2.3 21.08 2.3 22.12 2.3 21.89 3.14 19.3 12.33 20.78 12.33 24.6 12.33 25.02 10.11 25.03 10.04 23.74 10.04 22.68 10.04"/>
      <polygon class="cls-1" points="28.87 5.22 28.87 2.3 31.6 2.3 31.19 .07 31.17 0 26.29 0 26.29 12.33 28.54 12.33 31.07 12.33 31.26 11.33 31.26 11.33 31.5 10.04 29.71 10.04 28.87 10.04 28.87 7.35 30.95 7.35 30.95 7.05 30.95 5.22 29.71 5.22 28.87 5.22"/>
      <polygon class="cls-1" points="35.22 12.33 37.66 12.33 38.08 10.11 38.09 10.04 36.3 10.04 35.46 10.04 35.46 7.35 37.54 7.35 37.54 6.45 37.54 5.22 36.3 5.22 35.46 5.22 35.46 2.3 38.2 2.3 37.78 .07 37.76 0 32.88 0 32.88 12.33 35.22 12.33"/>
      <polygon class="cls-2" points="6.25 0 6.25 1.46 6.25 12.33 5.4 12.33 3.67 12.33 4.51 13.18 5.4 13.18 7.09 13.18 7.09 1.46 7.09 .84 6.25 0"/>
      <polygon class="cls-2" points="31.26 11.33 31.26 11.33 31.07 12.33 28.54 12.33 26.29 12.33 27.13 13.18 28.54 13.18 31.91 13.18 32.34 10.88 31.5 10.04 31.26 11.33"/>
      <polygon class="cls-2" points="38.09 10.04 38.08 10.11 38.08 10.11 37.66 12.33 35.22 12.33 32.88 12.33 33.72 13.18 35.22 13.18 38.5 13.18 38.93 10.88 38.09 10.04"/>
      <polygon class="cls-2" points="37.54 6.45 37.54 7.35 35.46 7.35 35.46 10.04 36.3 10.04 36.3 8.19 38.38 8.19 38.38 6.55 38.38 6.06 37.54 5.22 37.54 6.45"/>
      <polygon class="cls-2" points="30.95 7.05 30.95 7.35 28.87 7.35 28.87 10.04 29.71 10.04 29.71 8.19 31.79 8.19 31.79 7.05 31.79 6.06 30.95 5.22 30.95 7.05"/>
      <polygon class="cls-2" points="25.38 0 25.36 .07 25.36 .07 22.68 10.04 23.74 10.04 26.22 .84 25.38 0"/>
      <polygon class="cls-2" points="18.32 0 18.32 1.87 18.32 12.33 17.62 12.33 15.81 12.33 16.65 13.18 17.62 13.18 19.16 13.18 19.16 1.87 19.16 .84 18.32 0"/>
    </g>
  </g>
</svg>